Monsterwolf is set in the small Louisiana town of Crowley where the Holter Oil Company are illegally drilling for oil, at dig site three the men come across a strange Native American relic & get orders from the boss Stark (Robert Picardo) to blow it up. After detonating a load of C4 explosive the relic remains intact & the evil spirit of an ancient Indian tribe leader is summoned & manifests itself as a Monsterwolf! With Monsterwolf having killed all the men on site Stark panics that the deal for the oil rights might be lost so hires junior lawyer Maria Bennet (Leonor Varela) to handle the legal side of things & try to persuade the town that Holter Oil will benefit them financially, having grew up in Crowley Maria feels she can influence the town. However the Monsterwolf continues to kill all those associated with Holter Oil as it tries to protect the town & th surrounding land...
 
http://www.imdb.com/title/tt1535608/

Subs: Dutch (srt).


Een oeroud legendarisch wezen in de vorm van een wolf heeft de taak zijn land te beschermen en doodt iedereen die dreigt hem iets te doen. Het wezen wordt gevreesd door de lokale inwoners maar is tevens beroemd. Maar dan worden ze getroffen door een dodelijke vloek waardoor ze moeten samen werken zodat ze de geest van de wolf kunnen vangen, anders zullen ze het niet overleven..
 
http://www.moviemeter.nl/film/69611

Ondertitels: Nederlands (srt).

General
Complete name                    : MonsterWolf-AC3-XviD-DVDRip 2010 TBS\MonsterWolf-AC3-XviD-DVDRip 2010 TBS.avi
Format                           : AVI
Format/Info                      : Audio Video Interleave
File size                        : 1.46 GiB
Duration                         : 1h 26mn
Overall bit rate                 : 2 416 Kbps
Writing application              : VirtualDubMod 1.5.4.1 (build 2178/release)
Writing library                  : VirtualDubMod build 2178/release
Source                           : Dutch Pal Retail 2010

Video
ID                               : 0
Format                           : MPEG-4 Visual
Format profile                   : Simple@L3
Format settings, BVOP            : No
Format settings, QPel            : No
Format settings, GMC             : No warppoints
Format settings, Matrix          : Default (H.263)
Codec ID                         : XVID
Codec ID/Hint                    : XviD
Duration                         : 1h 26mn
Bit rate                         : 1 958 Kbps
Width                            : 720 pixels
Height                           : 400 pixels
Display aspect ratio             : 16:9
Frame rate                       : 25.000 fps
Resolution                       : 8 bits
Colorimetry                      : 4:2:0
Scan type                        : Progressive
Bits/(Pixel*Frame)               : 0.272
Stream size                      : 1.18 GiB (81%)
Writing library                  : XviD 1.1.2 (UTC 2006-11-01)

Audio
ID                               : 1
Format                           : AC-3
Format/Info                      : Audio Coding 3
Codec ID                         : 2000
Duration                         : 1h 26mn
Bit rate mode                    : Constant
Bit rate                         : 448 Kbps
Channel(s)                       : 6 channels
Channel positions                : Front: L C R, Surround: L R, LFE
Sampling rate                    : 48.0 KHz
Stream size                      : 277 MiB (19%)
Alignment                        : Split accross interleaves
Interleave, duration             : 40 ms (1.00 video frame)
Interleave, preload duration     : 500 ms

Thanks to Treinstel & Just4fun-Team.

TBS.